<?xml version="1.0" standalone="no"?>
<!DOCTYPE svg PUBLIC "-//W3C//DTD SVG 20010904//EN"
 "http://www.w3.org/TR/2001/REC-SVG-20010904/DTD/svg10.dtd">
<svg version="1.0" xmlns="http://www.w3.org/2000/svg"
 width="100.000000pt" height="100.000000pt" viewBox="0 0 100.000000 100.000000"
 preserveAspectRatio="xMidYMid meet">

<g transform="translate(0.000000,100.000000) scale(0.100000,-0.100000)"
fill="#000000" stroke="none">
<path d="M343 976 c-62 -20 -106 -50 -165 -115 -71 -76 -104 -148 -127 -279
-11 -59 -27 -128 -35 -152 -11 -31 -16 -82 -16 -163 0 -127 10 -160 69 -234
l26 -33 333 0 333 0 35 26 c21 16 48 55 70 100 20 40 40 72 44 69 20 -13 65
-92 76 -138 l14 -52 -4 50 c-3 28 -16 88 -31 135 -31 102 -98 371 -114 455
-17 94 -73 199 -132 245 -88 69 -153 95 -249 97 -51 2 -102 -3 -127 -11z m368
-107 c5 -11 8 -27 5 -37 -4 -12 4 -21 27 -32 51 -24 66 -83 66 -260 0 -99 5
-164 16 -204 8 -32 13 -66 10 -76 -7 -21 -60 -50 -147 -81 l-67 -23 -25 27
c-29 32 -43 33 -91 10 -30 -15 -42 -15 -80 -5 -59 16 -88 15 -131 -3 l-34 -14
-83 66 c-45 36 -86 69 -90 73 -5 4 -1 33 8 65 14 47 16 79 10 170 -8 139 3
192 45 208 22 8 30 18 32 41 4 41 29 45 76 13 20 -14 50 -29 65 -33 21 -5 26
-11 22 -24 -7 -23 20 -33 36 -14 10 13 10 17 -2 25 -11 7 -9 9 9 9 15 0 46 21
82 56 65 61 90 71 175 66 42 -3 58 -8 66 -23z"/>
<path d="M513 764 c-3 -8 -1 -20 5 -26 15 -15 43 8 35 28 -7 19 -32 18 -40 -2z"/>
<path d="M691 732 c-29 -23 -45 -28 -112 -31 -69 -3 -79 -1 -95 18 -24 27 -32
26 -64 -4 -14 -13 -50 -31 -80 -39 l-55 -16 60 4 c33 2 72 7 87 11 24 6 28 4
36 -26 l8 -34 -40 -3 c-89 -7 -260 47 -253 80 1 6 -4 13 -10 15 -22 8 -14 -15
14 -47 21 -23 55 -40 128 -65 134 -47 161 -46 271 11 99 52 140 86 149 127 9
34 -1 34 -44 -1z"/>
</g>
</svg>
